<svg xmlns="http://www.w3.org/2000/svg" style="display:none">
<symbol id="icon-ai-agents" viewBox="0 0 24 24"><path stroke="none" d="M0 0h24v24H0z" fill="none" /><path d="M17 19a2 2 0 1 0 4 0a2 2 0 1 0 -4 0" /><path d="M3 19a2 2 0 1 0 4 0a2 2 0 1 0 -4 0" /><path d="M10 5a2 2 0 1 0 4 0a2 2 0 1 0 -4 0" /><path d="M6 5a1 1 0 1 0 -2 0a1 1 0 0 0 2 0" /><path d="M18 5a1 1 0 1 0 2 0a1 1 0 0 0 -2 0" /><path d="M4 12a1 1 0 1 0 2 0a1 1 0 0 0 -2 0" /><path d="M11 12a1 1 0 1 0 2 0a1 1 0 0 0 -2 0" /><path d="M18 12a1 1 0 1 0 2 0a1 1 0 0 0 -2 0" /><path d="M11 19a1 1 0 1 0 2 0a1 1 0 0 0 -2 0" /></symbol>
<symbol id="icon-alert-circle" viewBox="0 0 24 24"><path stroke="none" d="M0 0h24v24H0z" fill="none" /><path d="M3 12a9 9 0 1 0 18 0a9 9 0 0 0 -18 0" /><path d="M12 8v4" /><path d="M12 16h.01" /></symbol>
<symbol id="icon-alert-triangle" viewBox="0 0 24 24"><path stroke="none" d="M0 0h24v24H0z" fill="none" /><path d="M12 9v4" /><path d="M10.363 3.591l-8.106 13.534a1.914 1.914 0 0 0 1.636 2.871h16.214a1.914 1.914 0 0 0 1.636 -2.87l-8.106 -13.536a1.914 1.914 0 0 0 -3.274 0" /><path d="M12 16h.01" /></symbol>
<symbol id="icon-bookmark-ai" viewBox="0 0 24 24"><path stroke="none" d="M0 0h24v24H0z" fill="none" /><path d="M10.02 18.32l-4.02 2.68v-14a4 4 0 0 1 4 -4h4a4 4 0 0 1 4 4v4.5" /><path d="M14 21v-4a2 2 0 1 1 4 0v4" /><path d="M14 19h4" /><path d="M21 15v6" /></symbol>
<symbol id="icon-bookmarks" viewBox="0 0 24 24"><path stroke="none" d="M0 0h24v24H0z" fill="none" /><path d="M15 10v11l-5 -3l-5 3v-11a3 3 0 0 1 3 -3h4a3 3 0 0 1 3 3z" /><path d="M11 3h5a3 3 0 0 1 3 3v11" /></symbol>
<symbol id="icon-border-all" viewBox="0 0 24 24"><path stroke="none" d="M0 0h24v24H0z" fill="none" /><path d="M4 6a2 2 0 0 1 2 -2h12a2 2 0 0 1 2 2v12a2 2 0 0 1 -2 2h-12a2 2 0 0 1 -2 -2l0 -12" /><path d="M4 12l16 0" /><path d="M12 4l0 16" /></symbol>
<symbol id="icon-brackets-angle" viewBox="0 0 24 24"><path stroke="none" d="M0 0h24v24H0z" fill="none" /><path d="M8 4l-5 8l5 8" /><path d="M16 4l5 8l-5 8" /></symbol>
<symbol id="icon-brackets" viewBox="0 0 24 24"><path stroke="none" d="M0 0h24v24H0z" fill="none" /><path d="M8 4h-3v16h3" /><path d="M16 4h3v16h-3" /></symbol>
<symbol id="icon-brand-facebook" viewBox="0 0 24 24"><path stroke="none" d="M0 0h24v24H0z" fill="none" /><path d="M7 10v4h3v7h4v-7h3l1 -4h-4v-2a1 1 0 0 1 1 -1h3v-4h-3a5 5 0 0 0 -5 5v2h-3" /></symbol>
<symbol id="icon-brand-github" viewBox="0 0 24 24"><path stroke="none" d="M0 0h24v24H0z" fill="none" /><path d="M9 19c-4.3 1.4 -4.3 -2.5 -6 -3m12 5v-3.5c0 -1 .1 -1.4 -.5 -2c2.8 -.3 5.5 -1.4 5.5 -6a4.6 4.6 0 0 0 -1.3 -3.2a4.2 4.2 0 0 0 -.1 -3.2s-1.1 -.3 -3.5 1.3a12.3 12.3 0 0 0 -6.2 0c-2.4 -1.6 -3.5 -1.3 -3.5 -1.3a4.2 4.2 0 0 0 -.1 3.2a4.6 4.6 0 0 0 -1.3 3.2c0 4.6 2.7 5.7 5.5 6c-.6 .6 -.6 1.2 -.5 2v3.5" /></symbol>
<symbol id="icon-brand-google-analytics" viewBox="0 0 24 24"><path stroke="none" d="M0 0h24v24H0z" fill="none" /><path d="M10 10.105a1.105 1.105 0 0 1 1.105 -1.105h1.79a1.105 1.105 0 0 1 1.105 1.105v9.79a1.105 1.105 0 0 1 -1.105 1.105h-1.79a1.105 1.105 0 0 1 -1.105 -1.105l0 -9.79" /><path d="M17 4.105a1.105 1.105 0 0 1 1.105 -1.105h1.79a1.105 1.105 0 0 1 1.105 1.105v15.79a1.105 1.105 0 0 1 -1.105 1.105h-1.79a1.105 1.105 0 0 1 -1.105 -1.105l0 -15.79" /><path d="M3 19a2 2 0 1 0 4 0a2 2 0 1 0 -4 0" /></symbol>
<symbol id="icon-brand-instagram" viewBox="0 0 24 24"><path stroke="none" d="M0 0h24v24H0z" fill="none" /><path d="M4 8a4 4 0 0 1 4 -4h8a4 4 0 0 1 4 4v8a4 4 0 0 1 -4 4h-8a4 4 0 0 1 -4 -4z" /><path d="M9 12a3 3 0 1 0 6 0a3 3 0 0 0 -6 0" /><path d="M16.5 7.5v.01" /></symbol>
<symbol id="icon-brand-linkedin-1" viewBox="0 0 24 24"><path stroke="none" d="M0 0h24v24H0z" fill="none" /><path d="M8 11v5" /><path d="M8 8v.01" /><path d="M12 16v-5" /><path d="M16 16v-3a2 2 0 1 0 -4 0" /><path d="M3 7a4 4 0 0 1 4 -4h10a4 4 0 0 1 4 4v10a4 4 0 0 1 -4 4h-10a4 4 0 0 1 -4 -4l0 -10" /></symbol>
<symbol id="icon-brand-linkedin" viewBox="0 0 24 24"><path stroke="none" d="M0 0h24v24H0z" fill="none" /><path d="M8 11v5" /><path d="M8 8v.01" /><path d="M12 16v-5" /><path d="M16 16v-3a2 2 0 1 0 -4 0" /><path d="M3 7a4 4 0 0 1 4 -4h10a4 4 0 0 1 4 4v10a4 4 0 0 1 -4 4h-10a4 4 0 0 1 -4 -4l0 -10" /></symbol>
<symbol id="icon-brand-pinterest" viewBox="0 0 24 24"><path stroke="none" d="M0 0h24v24H0z" fill="none" /><path d="M8 20l4 -9" /><path d="M10.7 14c.437 1.263 1.43 2 2.55 2c2.071 0 3.75 -1.554 3.75 -4a5 5 0 1 0 -9.7 1.7" /><path d="M12 12m-9 0a9 9 0 1 0 18 0a9 9 0 1 0 -18 0" /></symbol>
<symbol id="icon-brand-x" viewBox="0 0 24 24"><path stroke="none" d="M0 0h24v24H0z" fill="none" /><path d="M4 4l11.733 16h4.267l-11.733 -16z" /><path d="M4 20l6.768 -6.768m2.46 -2.46l6.772 -6.772" /></symbol>
<symbol id="icon-bug" viewBox="0 0 24 24"><path stroke="none" d="M0 0h24v24H0z" fill="none" /><path d="M9 9v-1a3 3 0 0 1 6 0v1" /><path d="M8 9h8a6 6 0 0 1 1 3v3a5 5 0 0 1 -10 0v-3a6 6 0 0 1 1 -3" /><path d="M3 13l4 0" /><path d="M17 13l4 0" /><path d="M12 20l0 -6" /><path d="M4 19l3.35 -2" /><path d="M20 19l-3.35 -2" /><path d="M4 7l3.75 2.4" /><path d="M20 7l-3.75 2.4" /></symbol>
<symbol id="icon-category" viewBox="0 0 24 24"><path stroke="none" d="M0 0h24v24H0z" fill="none" /><path d="M4 4h6v6h-6l0 -6" /><path d="M14 4h6v6h-6l0 -6" /><path d="M4 14h6v6h-6l0 -6" /><path d="M14 17a3 3 0 1 0 6 0a3 3 0 1 0 -6 0" /></symbol>
<symbol id="icon-chevron-down" viewBox="0 0 24 24"><path stroke="none" d="M0 0h24v24H0z" fill="none" /><path d="M6 9l6 6l6 -6" /></symbol>
<symbol id="icon-chevron-right" viewBox="0 0 24 24"><path stroke="none" d="M0 0h24v24H0z" fill="none" /><path d="M9 6l6 6l-6 6" /></symbol>
<symbol id="icon-clear-formatting" viewBox="0 0 24 24"><path stroke="none" d="M0 0h24v24H0z" fill="none" /><path d="M17 15l4 4m0 -4l-4 4" /><path d="M7 6v-1h11v1" /><path d="M7 19l4 0" /><path d="M13 5l-4 14" /></symbol>
<symbol id="icon-clipboard" viewBox="0 0 24 24"><path stroke="none" d="M0 0h24v24H0z" fill="none" /><path d="M9 5h-2a2 2 0 0 0 -2 2v12a2 2 0 0 0 2 2h10a2 2 0 0 0 2 -2v-12a2 2 0 0 0 -2 -2h-2" /><path d="M9 3m0 2a2 2 0 0 1 2 -2h2a2 2 0 0 1 2 2v0a2 2 0 0 1 -2 2h-2a2 2 0 0 1 -2 -2z" /></symbol>
<symbol id="icon-clock-hour-4" viewBox="0 0 24 24"><path stroke="none" d="M0 0h24v24H0z" fill="none" /><path d="M3 12a9 9 0 1 0 18 0a9 9 0 1 0 -18 0" /><path d="M12 12l3 2" /><path d="M12 7v5" /></symbol>
<symbol id="icon-copy" viewBox="0 0 24 24"><path stroke="none" d="M0 0h24v24H0z" fill="none" /><path d="M7 7m0 2.667a2.667 2.667 0 0 1 2.667 -2.667h8.666a2.667 2.667 0 0 1 2.667 2.667v8.666a2.667 2.667 0 0 1 -2.667 2.667h-8.666a2.667 2.667 0 0 1 -2.667 -2.667z" /><path d="M4.012 16.737a2.005 2.005 0 0 1 -1.012 -1.737v-10c0 -1.1 .9 -2 2 -2h10c.75 0 1.158 .385 1.5 1" /></symbol>
<symbol id="icon-dots" viewBox="0 0 24 24"><path stroke="none" d="M0 0h24v24H0z" fill="none" /><path d="M5 12m-1 0a1 1 0 1 0 2 0a1 1 0 1 0 -2 0" /><path d="M12 12m-1 0a1 1 0 1 0 2 0a1 1 0 1 0 -2 0" /><path d="M19 12m-1 0a1 1 0 1 0 2 0a1 1 0 1 0 -2 0" /></symbol>
<symbol id="icon-download" viewBox="0 0 24 24"><path stroke="none" d="M0 0h24v24H0z" fill="none" /><path d="M4 17v2a2 2 0 0 0 2 2h12a2 2 0 0 0 2 -2v-2" /><path d="M7 11l5 5l5 -5" /><path d="M12 4l0 12" /></symbol>
<symbol id="icon-edit" viewBox="0 0 24 24"><path stroke="none" d="M0 0h24v24H0z" fill="none" /><path d="M7 7h-1a2 2 0 0 0 -2 2v9a2 2 0 0 0 2 2h9a2 2 0 0 0 2 -2v-1" /><path d="M20.385 6.585a2.1 2.1 0 0 0 -2.97 -2.97l-8.415 8.385v3h3l8.385 -8.415z" /><path d="M16 5l3 3" /></symbol>
<symbol id="icon-hourglass-empty" viewBox="0 0 24 24"><path stroke="none" d="M0 0h24v24H0z" fill="none" /><path d="M6 20v-2a6 6 0 1 1 12 0v2a1 1 0 0 1 -1 1h-10a1 1 0 0 1 -1 -1z" /><path d="M6 4v2a6 6 0 1 0 12 0v-2a1 1 0 0 0 -1 -1h-10a1 1 0 0 0 -1 1z" /></symbol>
<symbol id="icon-key" viewBox="0 0 24 24"><path stroke="none" d="M0 0h24v24H0z" fill="none" /><path d="M16.555 3.843l3.602 3.602a2.877 2.877 0 0 1 0 4.069l-2.643 2.643a2.877 2.877 0 0 1 -4.069 0l-.301 -.301l-6.558 6.558a2 2 0 0 1 -1.239 .578l-.175 .008h-1.172a1 1 0 0 1 -.993 -.883l-.007 -.117v-1.172a2 2 0 0 1 .467 -1.284l.119 -.13l.414 -.414h2v-2h2v-2l2.144 -2.144l-.301 -.301a2.877 2.877 0 0 1 0 -4.069l2.643 -2.643a2.877 2.877 0 0 1 4.069 0" /><path d="M15 9h.01" /></symbol>
<symbol id="icon-link" viewBox="0 0 24 24"><path stroke="none" d="M0 0h24v24H0z" fill="none" /><path d="M9 15l6 -6" /><path d="M11 6l.463 -.536a5 5 0 0 1 7.071 7.072l-.534 .464" /><path d="M13 18l-.397 .534a5.068 5.068 0 0 1 -7.127 0a4.972 4.972 0 0 1 0 -7.071l.524 -.463" /></symbol>
<symbol id="icon-list-letters" viewBox="0 0 24 24"><path stroke="none" d="M0 0h24v24H0z" fill="none" /><path d="M11 6h9" /><path d="M11 12h9" /><path d="M11 18h9" /><path d="M4 10v-4.5a1.5 1.5 0 0 1 3 0v4.5" /><path d="M4 8h3" /><path d="M4 20h1.5a1.5 1.5 0 0 0 0 -3h-1.5h1.5a1.5 1.5 0 0 0 0 -3h-1.5v6" /></symbol>
<symbol id="icon-location" viewBox="0 0 24 24"><path stroke="none" d="M0 0h24v24H0z" fill="none" /><path d="M21 3l-6.5 18a.55 .55 0 0 1 -1 0l-3.5 -7l-7 -3.5a.55 .55 0 0 1 0 -1l18 -6.5" /></symbol>
<symbol id="icon-lock" viewBox="0 0 24 24"><path stroke="none" d="M0 0h24v24H0z" fill="none" /><path d="M5 13a2 2 0 0 1 2 -2h10a2 2 0 0 1 2 2v6a2 2 0 0 1 -2 2h-10a2 2 0 0 1 -2 -2v-6z" /><path d="M11 16a1 1 0 1 0 2 0a1 1 0 0 0 -2 0" /><path d="M8 11v-4a4 4 0 1 1 8 0v4" /></symbol>
<symbol id="icon-login" viewBox="0 0 24 24"><path stroke="none" d="M0 0h24v24H0z" fill="none" /><path d="M15 8v-2a2 2 0 0 0 -2 -2h-7a2 2 0 0 0 -2 2v12a2 2 0 0 0 2 2h7a2 2 0 0 0 2 -2v-2" /><path d="M21 12h-13l3 -3" /><path d="M11 15l-3 -3" /></symbol>
<symbol id="icon-logout" viewBox="0 0 24 24"><path stroke="none" d="M0 0h24v24H0z" fill="none" /><path d="M14 8v-2a2 2 0 0 0 -2 -2h-7a2 2 0 0 0 -2 2v12a2 2 0 0 0 2 2h7a2 2 0 0 0 2 -2v-2" /><path d="M9 12h12l-3 -3" /><path d="M18 15l3 -3" /></symbol>
<symbol id="icon-mail" viewBox="0 0 24 24"><path stroke="none" d="M0 0h24v24H0z" fill="none" /><path d="M3 7a2 2 0 0 1 2 -2h14a2 2 0 0 1 2 2v10a2 2 0 0 1 -2 2h-14a2 2 0 0 1 -2 -2v-10z" /><path d="M3 7l9 6l9 -6" /></symbol>
<symbol id="icon-map-2" viewBox="0 0 24 24"><path stroke="none" d="M0 0h24v24H0z" fill="none" /><path d="M12 18.5l-3 -1.5l-6 3v-13l6 -3l6 3l6 -3v7.5" /><path d="M9 4v13" /><path d="M15 7v5.5" /><path d="M21.121 20.121a3 3 0 1 0 -4.242 0c.418 .419 1.125 1.045 2.121 1.879c1.051 -.89 1.759 -1.516 2.121 -1.879" /><path d="M19 18v.01" /></symbol>
<symbol id="icon-map-pin" viewBox="0 0 24 24"><path stroke="none" d="M0 0h24v24H0z" fill="none" /><path d="M9 11a3 3 0 1 0 6 0a3 3 0 0 0 -6 0" /><path d="M17.657 16.657l-4.243 4.243a2 2 0 0 1 -2.827 0l-4.244 -4.243a8 8 0 1 1 11.314 0" /></symbol>
<symbol id="icon-menu-3" viewBox="0 0 24 24"><path stroke="none" d="M0 0h24v24H0z" fill="none" /><path d="M10 6h10" /><path d="M4 12h16" /><path d="M7 12h13" /><path d="M4 18h10" /></symbol>
<symbol id="icon-menu-4" viewBox="0 0 24 24"><path stroke="none" d="M0 0h24v24H0z" fill="none" /><path d="M7 6h10" /><path d="M4 12h16" /><path d="M7 12h13" /><path d="M7 18h10" /></symbol>
<symbol id="icon-message-circle" viewBox="0 0 24 24"><path stroke="none" d="M0 0h24v24H0z" fill="none" /><path d="M3 20l1.3 -3.9c-2.324 -3.437 -1.426 -7.872 2.1 -10.374c3.526 -2.501 8.59 -2.296 11.845 .48c3.255 2.777 3.695 7.266 1.029 10.501c-2.666 3.235 -7.615 4.215 -11.574 2.293l-4.7 1" /></symbol>
<symbol id="icon-moon" viewBox="0 0 24 24"><path stroke="none" d="M0 0h24v24H0z" fill="none" /><path d="M12 1.992a10 10 0 1 0 9.236 13.838c.341 -.82 -.476 -1.644 -1.298 -1.31a6.5 6.5 0 0 1 -6.864 -10.787l.077 -.08c.551 -.63 .113 -1.653 -.758 -1.653h-.266l-.068 -.006l-.06 -.002z" /></symbol>
<symbol id="icon-paperclip" viewBox="0 0 24 24"><path stroke="none" d="M0 0h24v24H0z" fill="none" /><path d="M15 7l-6.5 6.5a1.5 1.5 0 0 0 3 3l6.5 -6.5a3 3 0 0 0 -6 -6l-6.5 6.5a4.5 4.5 0 0 0 9 9l6.5 -6.5" /></symbol>
<symbol id="icon-phone" viewBox="0 0 24 24"><path stroke="none" d="M0 0h24v24H0z" fill="none" /><path d="M5 4h4l2 5l-2.5 1.5a11 11 0 0 0 5 5l1.5 -2.5l5 2v4a2 2 0 0 1 -2 2a16 16 0 0 1 -15 -15a2 2 0 0 1 2 -2" /></symbol>
<symbol id="icon-search" viewBox="0 0 24 24"><path stroke="none" d="M0 0h24v24H0z" fill="none" /><path d="M10 10m-7 0a7 7 0 1 0 14 0a7 7 0 1 0 -14 0" /><path d="M21 21l-6 -6" /></symbol>
<symbol id="icon-share-2" viewBox="0 0 24 24"><path stroke="none" d="M0 0h24v24H0z" fill="none" /><path d="M8 9h-1a2 2 0 0 0 -2 2v8a2 2 0 0 0 2 2h10a2 2 0 0 0 2 -2v-8a2 2 0 0 0 -2 -2h-1" /><path d="M12 14v-11" /><path d="M9 6l3 -3l3 3" /></symbol>
<symbol id="icon-sun" viewBox="0 0 24 24"><path stroke="none" d="M0 0h24v24H0z" fill="none" /><path d="M12 12m-4 0a4 4 0 1 0 8 0a4 4 0 1 0 -8 0" /><path d="M3 12h1m8 -9v1m8 8h1m-9 8v1m-6.4 -15.4l.7 .7m12.1 -.7l-.7 .7m0 11.4l.7 .7m-12.1 -.7l-.7 .7" /></symbol>
<symbol id="icon-user" viewBox="0 0 24 24"><path stroke="none" d="M0 0h24v24H0z" fill="none" /><path d="M8 7a4 4 0 1 0 8 0a4 4 0 0 0 -8 0" /><path d="M6 21v-2a4 4 0 0 1 4 -4h4a4 4 0 0 1 4 4v2" /></symbol>
<symbol id="icon-x" viewBox="0 0 24 24"><path stroke="none" d="M0 0h24v24H0z" fill="none" /><path d="M18 6l-12 12" /><path d="M6 6l12 12" /></symbol>
</svg>